<svg id="f45529ae-f7f3-4e89-9116-12c90dca9025" data-name="Layer 1" xmlns="http://www.w3.org/2000/svg" viewBox="0 0 80 130"><defs><style>.edb35dc2-1cde-427c-b0f4-dd3e8827d90f{fill:#293551;}.a0729500-7237-4cdf-858a-696c7f667c7a{fill:#fff;}.ee997787-4e87-4c94-b5bc-0971c109866b{fill:#334363;}.bb2f22a6-1ecf-4489-b1e1-0145ad8ae651{fill:#8e4f4f;}.b7bc90f7-65e8-4dd5-8601-b442cab31a78{fill:#ffefbb;}</style></defs><title>Logo</title><path class="edb35dc2-1cde-427c-b0f4-dd3e8827d90f" d="M77,76.7H60v46.8c0,10,7.6,18.1,17,18.1h0V76.7Z" transform="translate(-60 -38.4)"/><path class="edb35dc2-1cde-427c-b0f4-dd3e8827d90f" d="M106.3,101.7a33.5,33.5,0,0,0,18.4-30.5c-.2-18.3-14.6-32.8-31.8-32.8H86.1C71.7,38.4,60,50.9,60,66.2H77V56.5H93.2a14.8,14.8,0,0,1,14.5,14.2c.4,8.6-6.1,15.8-14.1,15.8H86.8v18l27.4,37.1h0c8.7,0,13.6-10.8,8.2-18.1Z" transform="translate(-60 -38.4)"/><polygon class="a0729500-7237-4cdf-858a-696c7f667c7a" points="53.9 107.6 70.7 93.2 56 74.3 39.1 88.6 53.9 107.6"/><path class="edb35dc2-1cde-427c-b0f4-dd3e8827d90f" d="M105.9,130a24.3,24.3,0,0,0,6.5-4.3,31.3,31.3,0,0,0,4.8-7,1.5,1.5,0,0,0-.1-1.6l-2.8-4.4a1,1,0,0,0-1.5-.4h0s-4.5,3.2-6.8,3.3h0c-.5,2.6-3.5,6.7-4,7.4h0a1.7,1.7,0,0,0-.2,2l2.8,4.5A1.1,1.1,0,0,0,105.9,130Z" transform="translate(-60 -38.4)"/><path class="ee997787-4e87-4c94-b5bc-0971c109866b" d="M107.3,136.9c4.7-1.4,8.7-5.6,8.7-5.6a28,28,0,0,0,6.3-9.4c.1-.3,0-.8-.3-.9l-2.9-1.5a.7.7,0,0,0-.9.3,35.3,35.3,0,0,1-4.9,7.3,23.9,23.9,0,0,1-6.8,4.3,1,1,0,0,0-.4,1l.5,3.9A.6.6,0,0,0,107.3,136.9Z" transform="translate(-60 -38.4)"/><path class="bb2f22a6-1ecf-4489-b1e1-0145ad8ae651" d="M104.5,113.3" transform="translate(-60 -38.4)"/><polygon class="bb2f22a6-1ecf-4489-b1e1-0145ad8ae651" points="56.5 93.7 56.5 93.7 56.5 93.7 56.5 93.7"/><path class="edb35dc2-1cde-427c-b0f4-dd3e8827d90f" d="M116.1,156c14.2,2.4,20,10,21.1,11.6s1.1.9,1.5.7.2-.3.1-.4L126.1,148a.6.6,0,0,0-.7-.2,3,3,0,0,1-4.1-1.2,5.1,5.1,0,0,1,.5-6.1h.1c1.5-1.5,3.6-1.2,4.8.7a5.3,5.3,0,0,1,.1,5.3.6.6,0,0,0,0,.8l12.7,19.9a.2.2,0,0,0,.3,0,1.9,1.9,0,0,0-.2-2c-1-1.7-5.6-10.4-4.4-28.3a2.3,2.3,0,0,0-.7-2l-11.1-10.4a.2.2,0,0,0-.4.1,30.1,30.1,0,0,1-5.9,8.5h0a24.6,24.6,0,0,1-7.9,5.3c-.2,0-.2.2-.2.4l5.6,15.8A1.9,1.9,0,0,0,116.1,156Zm1-22.9Z" transform="translate(-60 -38.4)"/><path class="edb35dc2-1cde-427c-b0f4-dd3e8827d90f" d="M107.2,138.2c3.8-.2,7.8-3.2,10.3-5.8a27.8,27.8,0,0,0,4.9-7.2,7.1,7.1,0,0,0,1-3.1.5.5,0,0,0-.9-.3l-1.3,2.4a34.6,34.6,0,0,1-4.6,6.7c-2.4,2.6-6,5.4-9.5,6.3-.6.2-.5,1.1.1,1Z" transform="translate(-60 -38.4)"/><path class="ee997787-4e87-4c94-b5bc-0971c109866b" d="M105.6,131.1c3-.1,6.1-2.5,8.1-4.5s5-5.6,4.5-8.2a.5.5,0,0,0-.8-.2,8.6,8.6,0,0,0-1,1.6,23,23,0,0,1-3.6,5.2,17.9,17.9,0,0,1-7.3,5.1.5.5,0,0,0,.1,1Z" transform="translate(-60 -38.4)"/><path class="b7bc90f7-65e8-4dd5-8601-b442cab31a78" d="M134.4,150.1a61.4,61.4,0,0,1-.2-8.6c0-1.9.1-4-.2-4.5s-9.4-10.2-10.2-10,6.8,6.9,7.6,13.1c1,7.7,2.6,13.1,3.3,13.8S134.6,152.2,134.4,150.1Z" transform="translate(-60 -38.4)"/><path class="b7bc90f7-65e8-4dd5-8601-b442cab31a78" d="M135.4,155.8s.6,2.1,1,3.3,1,2.1.7,2.1-1.5-2.5-2-4.6S135.1,154.6,135.4,155.8Z" transform="translate(-60 -38.4)"/><path class="edb35dc2-1cde-427c-b0f4-dd3e8827d90f" d="M121.3,122s-2.3-1.8-2.7-1.5-3.6,5.1-3.5,5.5.9.3,2-1.3,1-2.4,1.9-2.2S122.2,122.7,121.3,122Z" transform="translate(-60 -38.4)"/><path class="edb35dc2-1cde-427c-b0f4-dd3e8827d90f" d="M116.2,118.2a46.6,46.6,0,0,0-2.9-4.5c-.5-.4-1-.3-.7.5s2.5,4.6,3,4.9S116.5,118.7,116.2,118.2Z" transform="translate(-60 -38.4)"/></svg>