<svg xmlns="http://www.w3.org/2000/svg" xmlns:xlink="http://www.w3.org/1999/xlink" width="375" height="667" viewBox="0 0 375 667"><defs><style>.a{clip-path:url(#c);}.b,.d,.e{fill:#fff;}.b{opacity:0.05;}.c{opacity:0.98;}.d{stroke:#4c2fad;}.f{fill:url(#a);}</style><linearGradient id="a" x1="0.5" x2="0.5" y2="1" gradientUnits="objectBoundingBox"><stop offset="0" stop-color="#4d55ec"/><stop offset="0.513" stop-color="#4c2fad"/><stop offset="1" stop-color="#4c0b71"/></linearGradient><clipPath id="c"><rect width="375" height="667"/></clipPath></defs><g id="b" class="a"><rect class="f" width="375" height="667"/><ellipse class="b" cx="156.5" cy="150" rx="156.5" ry="150" transform="translate(-66 63)"/><ellipse class="b" cx="156.5" cy="150" rx="156.5" ry="150" transform="translate(54 279)"/><g class="c" transform="translate(91 237.602)"><g transform="translate(60 38.398)"><path class="d" d="M75.706,76.722H60v42.244c0,9.007,7.032,16.309,15.706,16.309h0V76.722Z" transform="translate(-60 -42.118)"/><path class="d" d="M102.846,95.522A30.047,30.047,0,0,0,90.5,38.4H84.2C70.833,38.4,60,49.648,60,63.524H75.706V54.706H90.738A13.523,13.523,0,0,1,104.157,67.58c.37,7.784-5.622,14.239-13.04,14.239H84.834V98.128l25.339,33.426h0c8.1,0,12.636-9.7,7.625-16.309Z" transform="translate(-60 -38.398)"/></g><g transform="translate(98.676 104.36)"><path class="e" d="M105.332,127.705a19.128,19.128,0,0,0,5.759-3.762,26.342,26.342,0,0,0,4.226-6.106,1.452,1.452,0,0,0-.058-1.415l-2.467-3.829a.919.919,0,0,0-1.336-.317l0,0s-3.932,2.826-5.963,2.852l-.033-.051c0,.017-.008.035-.011.051-.014,0-.029,0-.043,0l.033.051c-.43,2.224-3.035,5.829-3.5,6.461l-.006.005a1.517,1.517,0,0,0-.166,1.825l2.478,3.844A.872.872,0,0,0,105.332,127.705Z" transform="translate(-101.541 -112.108)"/><path class="e" d="M107.121,134.652a19.841,19.841,0,0,0,7.665-4.88,24.562,24.562,0,0,0,5.55-8.159.673.673,0,0,0-.252-.835l-2.583-1.312a.585.585,0,0,0-.791.307,29.318,29.318,0,0,1-4.308,6.3,22.783,22.783,0,0,1-5.922,3.795.838.838,0,0,0-.418.885l.458,3.409A.508.508,0,0,0,107.121,134.652Z" transform="translate(-102.084 -113.048)"/><path class="e" d="M104.506,113.329" transform="translate(-101.898 -112.265)"/><path class="e" d="M116.462,132.061l0-.006,0,0Z" transform="translate(-103.338 -114.677)"/><path class="e" d="M115.21,151.926c12.517,2.131,17.635,8.7,18.549,10.115.5.769.99.769,1.347.6a.249.249,0,0,0,.078-.348l-11.166-17.326a.42.42,0,0,0-.57-.164,2.692,2.692,0,0,1-3.646-1.086,4.422,4.422,0,0,1,.463-5.293l.04-.039a2.679,2.679,0,0,1,4.273.619,4.5,4.5,0,0,1,.045,4.641.705.705,0,0,0,0,.724L135.793,161.7a.163.163,0,0,0,.292-.017,1.646,1.646,0,0,0-.175-1.76c-.915-1.418-4.949-9.053-3.843-24.628a2.214,2.214,0,0,0-.644-1.767l-9.778-9.054a.187.187,0,0,0-.3.085,24.906,24.906,0,0,1-5.222,7.384l0,0a20.509,20.509,0,0,1-6.981,4.657.273.273,0,0,0-.135.346l4.958,13.811A1.7,1.7,0,0,0,115.21,151.926Zm.911-19.982,0,0,0,0-.005,0Z" transform="translate(-102.438 -113.694)"/><path class="e" d="M107.232,135.7s3.439-.514,8.2-4.808c4.442-4.784,5.612-8.819,5.612-8.819" transform="translate(-102.227 -113.392)"/><path class="e" d="M105.6,129.022s2.656-.4,6.331-3.714a19.05,19.05,0,0,0,4.335-6.812" transform="translate(-102.03 -112.931)"/><path class="e" d="M133.128,147.13a55.543,55.543,0,0,1-.22-7.507,13.908,13.908,0,0,0-.159-3.9c-.465-.913-8.247-8.931-8.976-8.746s5.955,6.042,6.684,11.465c.9,6.683,2.32,11.4,2.921,11.953C133.7,150.693,133.3,148.968,133.128,147.13Z" transform="translate(-104.213 -114.023)"/><path class="e" d="M135.351,155.7s.5,1.842.9,2.883c.418,1.088.835,1.808.558,1.872a12.586,12.586,0,0,1-1.68-4.068C134.959,155.618,135.069,154.659,135.351,155.7Z" transform="translate(-105.579 -117.665)"/><path class="e" d="M120.534,121.822s-1.967-1.62-2.331-1.322a29.98,29.98,0,0,0-3.136,4.785c.05.332.829.3,1.829-1.144s.837-2.109,1.652-1.865S121.351,122.446,120.534,121.822Z" transform="translate(-103.171 -113.184)"/><path class="e" d="M115.717,117.556a45.9,45.9,0,0,0-2.519-3.908c-.416-.359-.875-.211-.624.417a28.089,28.089,0,0,0,2.638,4.332C115.629,118.709,116.018,118.06,115.717,117.556Z" transform="translate(-102.862 -112.282)"/></g></g></g></svg>